<svg width="600.000000pt" height="400.000000pt" viewBox="0 0 600.000000 400.000000" xmlns="http://www.w3.org/2000/svg">
  <g transform="translate(0.000000,400.000000) scale(0.100000,-0.100000)" fill="#fefefe" stroke="none">
    <path d="M0 2000 l0 -2000 3000 0 3000 0 0 2000 0 2000 -3000 0 -3000 0 0
-2000z m677 280 c17 -10 36 -27 41 -37 5 -10 13 -37 17 -60 l7 -43 -24 -8
c-12 -5 -35 -12 -50 -16 l-28 -6 0 50 0 50 -265 0 -265 0 0 -110 0 -109 285
-3 285 -3 25 -26 26 -26 12 -66 11 -67 -11 -76 -11 -77 -26 -26 -26 -26 -303
-3 -302 -2 -33 20 -32 20 0 69 c0 39 3 72 7 74 5 2 20 7 36 11 l27 6 0 -60 0
-60 285 0 285 0 0 115 0 115 -217 0 c-120 1 -249 5 -288 10 l-70 9 -27 30 -26
29 -8 69 -7 68 11 63 11 64 18 20 c10 11 27 24 38 29 11 4 142 8 290 8 l270 1
32 -20z m3423 -130 l0 -150 11 0 c6 0 110 68 231 150 l219 151 71 -3 71 -3
-242 -158 -241 -159 0 -18 0 -17 270 -174 270 -174 -82 -3 -82 -3 -233 156
c-128 85 -240 155 -248 155 l-15 0 0 -155 0 -155 -55 0 -55 0 0 355 0 355 55
0 55 0 0 -150z m-2730 -240 l20 -20 0 -30 c0 -16 -3 -30 -7 -30 -5 0 -18 -3
-30 -6 l-23 -6 0 41 0 41 -130 0 -130 0 0 -140 0 -140 130 0 130 0 0 45 c0 25
3 45 8 45 4 0 17 -3 30 -6 l22 -6 0 -34 0 -34 -20 -20 -20 -20 -154 0 -155 0
-15 22 -16 22 0 128 0 128 20 20 20 20 150 0 150 0 20 -20z m230 -150 l0 -170
-25 0 -25 0 0 170 0 170 25 0 25 0 0 -170z m530 155 l0 -15 -145 0 -145 0 0
-60 0 -60 85 0 85 0 0 -15 0 -15 -85 0 -85 0 0 -65 0 -65 150 0 150 0 0 -15 0
-15 -180 0 -180 0 0 170 0 170 175 0 175 0 0 -15z m322 -110 c78 -69 148 -125
155 -125 l13 0 0 125 0 125 30 0 30 0 0 -170 0 -170 -19 0 -20 0 -148 130
c-81 71 -154 130 -160 130 l-13 0 0 -130 0 -130 -25 0 -25 0 0 170 0 170 19 0
20 0 143 -125z m758 105 l20 -20 0 -30 c0 -16 -3 -30 -7 -30 -5 0 -18 -3 -30
-6 l-23 -6 0 41 0 41 -130 0 -130 0 0 -140 0 -140 130 0 130 0 0 45 c0 25 3
45 8 45 4 0 17 -3 30 -6 l22 -6 0 -34 0 -34 -20 -20 -20 -20 -154 0 -155 0
-15 22 -16 22 0 128 0 128 20 20 20 20 150 0 150 0 20 -20z m530 5 l0 -15
-145 0 -145 0 0 -60 0 -60 85 0 85 0 0 -15 0 -15 -85 0 -85 0 0 -65 0 -65 150
0 150 0 0 -15 0 -15 -180 0 -180 0 0 170 0 170 175 0 175 0 0 -15z m1230 -155
l0 -170 -25 0 -25 0 0 170 0 170 25 0 25 0 0 -170z m240 15 l0 -155 140 0 140
0 0 -15 0 -15 -170 0 -170 0 0 170 0 170 30 0 30 0 0 -155z m460 0 l0 -155
140 0 140 0 0 -15 0 -15 -170 0 -170 0 0 170 0 170 30 0 30 0 0 -155z" />
  </g>
  <g transform="translate(0.000000,400.000000) scale(0.100000,-0.100000)" fill="#000000" stroke="none">
    <path d="M1020 1920 l-20 -20 0 -138 0 -138 16 -22 15 -22 165 0 164 0 20 20
20 20 0 44 0 44 -22 6 c-13 3 -31 6 -40 6 l-18 0 0 -45 0 -45 -120 0 -120 0 0
130 0 130 120 0 120 0 0 -40 0 -40 18 0 c9 0 27 3 40 6 l22 6 0 39 0 39 -20
20 -20 20 -160 0 -160 0 -20 -20z" />
    <path d="M1540 1760 l0 -180 35 0 35 0 0 180 0 180 -35 0 -35 0 0 -180z" />
    <path d="M1770 1760 l0 -180 190 0 190 0 0 25 0 25 -150 0 -150 0 0 55 0 55
85 0 85 0 0 25 0 25 -85 0 -85 0 0 50 0 50 145 0 145 0 0 25 0 25 -185 0 -185
0 0 -180z" />
    <path d="M2260 1760 l0 -180 35 0 34 0 3 130 3 129 148 -129 148 -130 30 0 29
0 0 180 0 180 -40 0 -39 0 -3 -125 -3 -126 -143 126 -143 125 -30 0 -29 0 0
-180z" />
    <path d="M2860 1920 l-20 -20 0 -138 0 -138 16 -22 15 -22 165 0 164 0 20 20
20 20 0 44 0 44 -22 6 c-13 3 -31 6 -40 6 l-18 0 0 -45 0 -45 -120 0 -120 0 0
130 0 130 120 0 120 0 0 -40 0 -40 18 0 c9 0 27 3 40 6 l22 6 0 39 0 39 -20
20 -20 20 -160 0 -160 0 -20 -20z" />
    <path d="M3380 1760 l0 -180 190 0 190 0 0 25 0 25 -150 0 -150 0 0 55 0 55
85 0 85 0 0 25 0 25 -85 0 -85 0 0 50 0 50 145 0 145 0 0 25 0 25 -185 0 -185
0 0 -180z" />
    <path d="M4910 1760 l0 -180 35 0 35 0 0 180 0 180 -35 0 -35 0 0 -180z" />
    <path d="M5140 1760 l0 -180 180 0 180 0 0 25 0 25 -140 0 -140 0 0 155 0 155
-40 0 -40 0 0 -180z" />
    <path d="M5600 1760 l0 -180 180 0 180 0 0 25 0 25 -140 0 -140 0 0 155 0 155
-40 0 -40 0 0 -180z" />
  </g>
  <g transform="translate(0.000000,400.000000) scale(0.100000,-0.100000)" fill="#0315fe" stroke="none">
    <path d="M80 2303 c-8 -3 -25 -15 -37 -26 l-22 -20 -12 -56 -12 -56 6 -85 6
-84 19 -26 c10 -14 32 -32 48 -40 l29 -14 268 -4 267 -4 0 -104 0 -104 -275 0
-275 0 0 61 0 61 -37 -7 c-21 -4 -41 -9 -45 -11 -5 -3 -8 -41 -8 -85 l0 -79
32 -20 33 -20 312 2 313 3 25 25 25 25 10 54 c5 29 10 78 10 107 0 29 -5 75
-11 102 l-10 50 -25 23 -26 24 -284 3 -284 3 0 99 0 100 255 0 255 0 0 -51 0
-51 36 7 c20 3 47 11 61 16 l26 9 -7 52 c-4 28 -12 60 -17 70 -6 11 -25 28
-42 38 l-32 20 -280 -1 c-154 0 -287 -3 -295 -6z" />
  </g>
  <g transform="translate(0.000000,400.000000) scale(0.100000,-0.100000)" fill="#ef03fe" stroke="none">
    <path d="M3980 1945 l0 -365 65 0 65 0 0 155 c0 85 2 155 5 155 3 0 110 -70
238 -155 l232 -155 102 0 c57 0 103 3 103 8 -1 4 -127 87 -280 186 -154 98
-280 182 -280 186 0 5 115 84 257 177 l256 168 -96 3 -96 3 -218 -150 -218
-149 -3 149 -3 149 -64 0 -65 0 0 -365z" />
  </g>
  <g transform="translate(0.000000,400.000000) scale(0.100000,-0.100000)" fill="#878787" stroke="none">
    <path d="M1774 1760 c0 -102 2 -143 3 -92 2 50 2 134 0 185 -1 50 -3 9 -3 -93z" />
    <path d="M2684 1760 c0 -102 2 -143 3 -92 2 50 2 134 0 185 -1 50 -3 9 -3 -93z" />
    <path d="M3384 1760 c0 -102 2 -143 3 -92 2 50 2 134 0 185 -1 50 -3 9 -3 -93z" />
    <path d="M5144 1760 c0 -102 2 -143 3 -92 2 50 2 134 0 185 -1 50 -3 9 -3 -93z" />
    <path d="M5604 1760 c0 -102 2 -143 3 -92 2 50 2 134 0 185 -1 50 -3 9 -3 -93z" />
    <path d="M1004 1760 c0 -74 1 -105 3 -67 2 37 2 97 0 135 -2 37 -3 6 -3 -68z" />
    <path d="M2844 1760 c0 -74 1 -105 3 -67 2 37 2 97 0 135 -2 37 -3 6 -3 -68z" />
  </g>
  <g transform="translate(0.000000,400.000000) scale(0.100000,-0.100000)" fill="#999999" stroke="none">
    <path d="M2614 1815 c0 -71 1 -99 3 -62 2 37 2 96 0 130 -2 34 -3 4 -3 -68z" />
    <path d="M1074 1760 c0 -74 1 -105 3 -67 2 37 2 97 0 135 -2 37 -3 6 -3 -68z" />
    <path d="M2914 1760 c0 -74 1 -105 3 -67 2 37 2 97 0 135 -2 37 -3 6 -3 -68z" />
  </g>
  <g transform="translate(0.000000,400.000000) scale(0.100000,-0.100000)" fill="#faf2fe" stroke="none">
    <path d="M4507 2283 c-20 -14 -35 -28 -33 -30 2 -3 23 8 45 23 23 14 41 28 41
30 0 2 -3 4 -7 3 -5 0 -25 -12 -46 -26z" />
    <path d="M4631 2244 c-39 -26 -70 -48 -67 -51 2 -2 36 17 75 43 39 26 71 49
71 50 0 2 -1 4 -3 4 -2 0 -36 -21 -76 -46z" />
    <path d="M110 2203 c0 -5 119 -8 265 -8 146 0 265 3 265 8 0 4 -119 7 -265 7
-146 0 -265 -3 -265 -7z" />
    <path d="M4317 2153 c-20 -14 -35 -28 -33 -30 2 -3 23 8 45 23 23 14 41 28 41
30 0 2 -3 4 -7 3 -5 0 -25 -12 -46 -26z" />
    <path d="M4280 2014 c-36 -24 -65 -49 -65 -56 0 -6 6 -13 13 -16 l12 -4 -5 15
-6 14 66 43 c36 23 65 44 65 46 0 2 -3 4 -7 3 -5 0 -37 -20 -73 -45z" />
    <path d="M255 1893 c44 -2 151 -4 238 -5 86 -2 157 0 157 5 0 4 -107 6 -237 5
-131 -1 -202 -3 -158 -5z" />
  </g>
  <g transform="translate(0.000000,400.000000) scale(0.100000,-0.100000)" fill="#b9b9b9" stroke="none">
    <path d="M5214 1785 c0 -88 2 -123 3 -77 2 46 2 118 0 160 -1 42 -3 5 -3 -83z" />
    <path d="M5674 1785 c0 -88 2 -123 3 -77 2 46 2 118 0 160 -1 42 -3 5 -3 -83z" />
    <path d="M1843 1685 c0 -33 2 -45 4 -27 2 18 2 45 0 60 -2 15 -4 0 -4 -33z" />
    <path d="M3453 1685 c0 -33 2 -45 4 -27 2 18 2 45 0 60 -2 15 -4 0 -4 -33z" />
  </g>
  <g transform="translate(0.000000,400.000000) scale(0.100000,-0.100000)" fill="#f9b1fe" stroke="none">
    <path d="M4102 2158 l-2 -158 8 0 c5 0 28 14 50 30 23 17 42 32 42 35 0 3 -19
-9 -42 -26 l-43 -31 -5 154 -6 153 -2 -157z" />
    <path d="M4610 2230 c-41 -27 -72 -50 -67 -50 4 0 39 21 77 46 39 26 70 49 70
50 0 2 -1 4 -2 4 -2 0 -37 -23 -78 -50z" />
    <path d="M4349 2172 c-19 -15 -46 -35 -60 -45 l-24 -18 33 18 c19 10 48 30 65
45 18 15 30 27 27 27 -3 0 -21 -12 -41 -27z" />
    <path d="M4320 2040 c-58 -38 -102 -70 -98 -70 4 0 52 29 108 65 55 36 100 68
100 70 0 3 -1 5 -2 4 -2 0 -50 -31 -108 -69z" />
    <path d="M4102 1743 l2 -168 3 158 c2 86 6 157 9 157 3 0 32 -18 65 -40 32
-23 59 -38 59 -36 0 3 -26 23 -57 44 -32 21 -64 42 -70 46 l-13 7 2 -168z" />
  </g>
  <g transform="translate(0.000000,400.000000) scale(0.100000,-0.100000)" fill="#444444" stroke="none">
    <path d="M1544 1760 c0 -102 2 -143 3 -92 2 50 2 134 0 185 -1 50 -3 9 -3 -93z" />
    <path d="M4914 1760 c0 -102 2 -143 3 -92 2 50 2 134 0 185 -1 50 -3 9 -3 -93z" />
  </g>
  <g transform="translate(0.000000,400.000000) scale(0.100000,-0.100000)" fill="#2f3efe" stroke="none">
    <path d="M114 2105 c0 -60 1 -84 3 -52 2 32 2 81 0 110 -2 29 -3 3 -3 -58z" />
    <path d="M644 1790 c0 -63 1 -89 3 -57 2 31 2 83 0 115 -2 31 -3 5 -3 -58z" />
  </g>
  <g transform="translate(0.000000,400.000000) scale(0.100000,-0.100000)" fill="#272727" stroke="none">
    <path d="M2320 1868 c0 -4 13 -21 30 -39 16 -18 32 -31 35 -28 2 3 -11 21 -30
39 -19 19 -35 31 -35 28z" />
    <path d="M2324 1705 c0 -71 1 -99 3 -62 2 37 2 96 0 130 -2 34 -3 4 -3 -68z" />
  </g>
  <g transform="translate(0.000000,400.000000) scale(0.100000,-0.100000)" fill="#f34dfe" stroke="none">
    <path d="M4290 1777 c36 -24 79 -52 95 -62 17 -10 26 -14 20 -8 -5 6 -45 33
-87 62 -42 28 -81 51 -85 51 -4 0 21 -19 57 -43z" />
  </g>
  <g transform="translate(0.000000,400.000000) scale(0.100000,-0.100000)" fill="#f680fe" stroke="none">
    <path d="M4405 1703 c6 -6 44 -33 85 -60 41 -27 82 -53 90 -58 l15 -8 -10 10
c-5 6 -44 33 -85 60 -41 27 -82 53 -90 58 l-15 8 10 -10z" />
  </g>
  <g transform="translate(0.000000,400.000000) scale(0.100000,-0.100000)" fill="#fce0fe" stroke="none" />
  <g transform="translate(0.000000,400.000000) scale(0.100000,-0.100000)" fill="#f129fe" stroke="none" />
  <g transform="translate(0.000000,400.000000) scale(0.100000,-0.100000)" fill="#eaebf6" stroke="none">
    <path d="M753 1795 c0 -38 2 -53 4 -32 2 20 2 52 0 70 -2 17 -4 1 -4 -38z" />
  </g>
  <g transform="translate(0.000000,400.000000) scale(0.100000,-0.100000)" fill="#1021fe" stroke="none">
    <path d="M80 1737 l5 -62 3 54 c2 30 0 58 -5 62 l-8 8 5 -62z" />
  </g>
  <g transform="translate(0.000000,400.000000) scale(0.100000,-0.100000)" fill="#5460fe" stroke="none">
    <path d="M632 2158 l-2 -58 18 0 17 0 -12 8 c-6 4 -13 30 -16 57 l-3 50 -2
-57z" />
  </g>
  <g transform="translate(0.000000,400.000000) scale(0.100000,-0.100000)" fill="#acb2fe" stroke="none" />
  <g transform="translate(0.000000,400.000000) scale(0.100000,-0.100000)" fill="#d0d3fe" stroke="none">
    <path d="M3 2100 c0 -36 2 -50 4 -32 2 17 2 47 0 65 -2 17 -4 3 -4 -33z" />
  </g>
  <g transform="translate(0.000000,400.000000) scale(0.100000,-0.100000)" fill="#818afe" stroke="none" />
  <g transform="translate(0.000000,400.000000) scale(0.100000,-0.100000)" fill="#101010" stroke="none" />
  <g transform="translate(0.000000,400.000000) scale(0.100000,-0.100000)" fill="#cccccc" stroke="none" />
  <g transform="translate(0.000000,400.000000) scale(0.100000,-0.100000)" fill="#dddddd" stroke="none" />
</svg>